<?xml version="1.0" encoding="UTF-8"?>
<svg width="600" height="500" viewBox="0 0 600 500" fill="none" xmlns="http://www.w3.org/2000/svg">
  <!-- Background circle -->
  <circle cx="300" cy="250" r="200" fill="#0a1930" opacity="0.1"/>
  
  <!-- Mentor figure -->
  <g transform="translate(200, 150)">
    <!-- Head -->
    <circle cx="70" cy="50" r="40" fill="#007bff" opacity="0.9"/>
    <!-- Body -->
    <path d="M70 90 L70 200 M40 130 L100 130" stroke="#007bff" stroke-width="10" stroke-linecap="round"/>
    <!-- Legs -->
    <path d="M70 200 L40 270 M70 200 L100 270" stroke="#007bff" stroke-width="10" stroke-linecap="round"/>
  </g>
  
  <!-- Mentee figure -->
  <g transform="translate(340, 180)">
    <!-- Head -->
    <circle cx="30" cy="30" r="25" fill="#6c757d" opacity="0.9"/>
    <!-- Body -->
    <path d="M30 55 L30 130 M10 85 L50 85" stroke="#6c757d" stroke-width="8" stroke-linecap="round"/>
    <!-- Legs -->
    <path d="M30 130 L15 180 M30 130 L45 180" stroke="#6c757d" stroke-width="8" stroke-linecap="round"/>
  </g>
  
  <!-- Connection line between mentor and mentee -->
  <path d="M270 200 Q 300 170, 340 210" stroke="#007bff" stroke-width="4" stroke-dasharray="5,5"/>
  
  <!-- Knowledge transfer icons -->
  <g transform="translate(300, 165)">
    <circle cx="0" cy="0" r="15" fill="#ffffff"/>
    <path d="M-7 0 L7 0 M0 -7 L0 7" stroke="#007bff" stroke-width="3" stroke-linecap="round"/>
  </g>
  
  <!-- Stars representing ideas and growth -->
  <g>
    <path d="M180 120 L185 135 L200 140 L185 145 L180 160 L175 145 L160 140 L175 135 Z" fill="#FFD700" opacity="0.8"/>
    <path d="M380 100 L383 110 L395 112 L383 114 L380 125 L377 114 L365 112 L377 110 Z" fill="#FFD700" opacity="0.8"/>
    <path d="M420 190 L423 200 L435 202 L423 204 L420 215 L417 204 L405 202 L417 200 Z" fill="#FFD700" opacity="0.6"/>
  </g>
  
  <!-- Growth arrow -->
  <path d="M330 300 Q 400 250, 450 150" stroke="#28a745" stroke-width="4" stroke-linecap="round"/>
  <polygon points="450,150 440,165 455,170" fill="#28a745"/>
</svg>
